<?xml version="1.0" standalone="no"?>
<!DOCTYPE svg PUBLIC "-//W3C//DTD SVG 20010904//EN"
 "http://www.w3.org/TR/2001/REC-SVG-20010904/DTD/svg10.dtd">
<svg version="1.0" xmlns="http://www.w3.org/2000/svg" viewBox="0 0 640.000000 640.000000"
 preserveAspectRatio="xMidYMid meet">

<g transform="translate(0.000000,640.000000) scale(0.100000,-0.100000)"
fill="#fff" stroke="none">
<path d="M1927 3958 c-15 -40 -227 -685 -227 -691 0 -4 91 -7 203 -7 l203 0
28 85 27 85 279 0 278 0 36 108 c20 59 36 109 36 112 0 3 -124 4 -275 2 -151
-1 -275 1 -275 5 0 4 5 25 10 45 l11 38 281 2 282 3 33 100 c18 55 33 106 33
113 0 18 -956 18 -963 0z"/>
<path d="M5425 3853 c-87 -19 -149 -63 -160 -113 -8 -39 18 -94 58 -119 l31
-19 -40 -17 c-50 -21 -81 -51 -89 -85 -13 -60 47 -139 123 -160 60 -16 171
-12 251 10 67 19 75 19 91 5 14 -13 39 -15 130 -13 l112 3 -42 48 c-23 26 -41
49 -39 51 2 2 18 8 34 13 28 9 30 14 33 61 2 29 -1 52 -6 52 -4 0 -36 -11 -69
-24 l-61 -24 -43 44 -42 43 36 41 c97 107 -10 212 -212 209 -42 -1 -85 -3 -96
-6z m126 -83 c24 -13 24 -38 0 -70 -19 -24 -20 -24 -39 -7 -27 25 -33 54 -15
72 17 18 28 19 54 5z m-7 -289 c41 -42 36 -51 -28 -51 -53 0 -72 35 -39 72 9
10 19 18 23 18 3 0 23 -17 44 -39z"/>
<path d="M3929 3760 c-42 -4 -99 -15 -127 -24 -136 -45 -193 -233 -90 -296 28
-17 51 -20 153 -20 66 0 130 -3 143 -6 32 -9 24 -35 -13 -46 -31 -10 -323 -3
-361 8 -19 5 -24 -2 -42 -55 -11 -33 -18 -63 -14 -65 4 -2 57 -9 118 -16 150
-17 440 -9 511 14 97 31 143 90 143 184 0 61 -26 97 -78 112 -20 5 -92 10
-159 10 -116 0 -123 1 -123 20 0 13 9 22 28 27 37 9 221 9 307 0 l71 -8 22 68
c12 37 20 69 18 71 -18 17 -393 34 -507 22z"/>
<path d="M2830 3510 c-102 -131 -186 -243 -187 -247 -2 -4 68 -7 155 -5 l157
3 20 29 20 30 128 0 127 0 0 -30 0 -30 139 0 139 0 -4 153 c-3 83 -7 194 -10
245 l-6 92 -247 0 -246 0 -185 -240z m410 15 l0 -95 -76 0 c-42 0 -74 4 -72 8
7 18 133 181 141 182 4 0 7 -43 7 -95z"/>
<path d="M4478 3670 l-26 -80 93 0 93 0 -40 -122 c-23 -68 -47 -142 -54 -165
l-13 -43 142 0 143 0 54 165 54 165 96 0 96 0 22 68 c12 38 22 74 22 80 0 9
-83 12 -328 12 l-328 0 -26 -80z"/>
<path d="M410 3383 c-31 -100 -249 -758 -257 -781 -4 -10 50 -12 263 -10 l268
3 34 107 34 108 365 2 366 3 39 115 c21 63 41 123 44 133 5 16 -17 17 -360 17
l-365 0 18 53 18 52 366 3 365 2 46 139 c25 76 46 141 46 144 0 4 -283 7 -629
7 l-629 0 -32 -97z"/>
<path d="M4002 3188 c-114 -14 -179 -42 -239 -103 -44 -46 -56 -66 -79 -139
-47 -151 -22 -224 90 -263 42 -15 85 -18 251 -18 217 0 280 11 354 61 98 66
170 276 124 364 -46 88 -254 129 -501 98z m183 -170 c14 -6 28 -22 31 -34 7
-27 -19 -119 -42 -153 -46 -64 -194 -68 -210 -5 -7 27 19 119 42 153 32 45
122 65 179 39z"/>
<path d="M5655 3179 c-33 -5 -85 -21 -115 -36 -46 -24 -60 -37 -83 -83 -23
-45 -28 -65 -24 -107 7 -94 45 -113 227 -113 118 0 147 -7 137 -32 -8 -22
-132 -29 -283 -18 -70 5 -129 9 -130 7 -8 -8 -43 -112 -39 -116 10 -9 124 -20
275 -27 290 -12 430 22 478 116 39 78 24 172 -33 198 -16 7 -77 12 -158 12
-137 0 -162 6 -152 33 12 29 127 33 385 14 22 -2 27 5 49 66 13 37 22 69 20
72 -2 2 -65 8 -139 14 -154 13 -328 12 -415 0z"/>
<path d="M1602 2992 c-34 -103 -62 -201 -62 -218 0 -42 30 -78 82 -99 56 -23
314 -33 413 -16 81 14 153 49 188 90 16 19 48 101 88 218 34 103 64 194 67
201 3 10 -26 12 -138 10 l-143 -3 -58 -174 c-68 -203 -82 -223 -149 -219 -44
3 -45 4 -48 38 -2 22 16 91 48 185 27 82 50 155 50 162 0 10 -32 13 -138 13
l-137 0 -63 -188z"/>
<path d="M2492 3163 c-10 -19 -162 -476 -162 -487 0 -3 63 -6 139 -6 l140 0
27 85 c16 47 31 85 35 85 4 0 36 -38 70 -85 l63 -85 163 0 c90 0 163 3 163 6
0 4 -39 47 -87 96 -49 49 -89 93 -91 97 -2 5 28 10 66 13 83 4 139 36 167 94
43 92 22 173 -52 193 -23 7 -157 11 -335 11 -273 0 -298 -1 -306 -17z m428
-137 c16 -20 -6 -66 -40 -83 -27 -14 -180 -18 -180 -5 0 5 7 29 16 55 l16 47
88 0 c64 0 91 -4 100 -14z"/>
<path d="M3375 3168 c-9 -24 -165 -493 -165 -496 0 -1 64 -1 142 0 l142 3 83
250 c45 138 83 251 83 253 0 1 -63 2 -140 2 -103 0 -142 -3 -145 -12z"/>
<path d="M4620 2995 c-33 -102 -60 -203 -60 -224 0 -44 23 -71 85 -97 50 -22
318 -32 410 -15 79 14 164 58 192 99 20 31 143 382 143 410 0 10 -31 12 -137
10 l-138 -3 -47 -140 c-67 -203 -68 -206 -94 -232 -17 -16 -35 -23 -64 -23
-70 0 -71 19 -6 217 31 93 56 172 56 176 0 4 -63 7 -140 7 l-139 0 -61 -185z"/>
</g>
</svg>
